<svg width="127" height="30" viewBox="0 0 127 30" fill="none" xmlns="http://www.w3.org/2000/svg">
<g filter="url(#filter0_d_901_22)">
<path d="M4.68 22V0.399999H8.55L16.92 10.36L25.26 0.399999H29.16V22H25.89V4.75L16.92 15.43L7.92 4.75V22H4.68ZM31.572 22V4.3C31.572 3.22 31.952 2.3 32.712 1.54C33.472 0.779999 34.392 0.399999 35.472 0.399999H49.242C50.322 0.399999 51.242 0.779999 52.002 1.54C52.782 2.3 53.172 3.22 53.172 4.3V22H49.902V14.44H34.812V22H31.572ZM34.812 11.2H49.902V4.75C49.902 4.31 49.822 4.02 49.662 3.88C49.522 3.72 49.232 3.64 48.792 3.64H35.922C35.482 3.64 35.182 3.72 35.022 3.88C34.882 4.02 34.812 4.31 34.812 4.75V11.2ZM55.5602 22V0.429999H73.2302C74.3102 0.429999 75.2302 0.819999 75.9902 1.6C76.7702 2.36 77.1602 3.27 77.1602 4.33V10.39C77.1602 11.45 76.7702 12.37 75.9902 13.15C75.2302 13.91 74.3102 14.29 73.2302 14.29H71.0702L77.0702 21.4V22H73.2902L66.8402 14.29H58.8002V22H55.5602ZM59.9102 11.02H72.7802C73.2402 11.02 73.5402 10.95 73.6802 10.81C73.8202 10.67 73.8902 10.38 73.8902 9.94V4.78C73.8902 4.34 73.8202 4.05 73.6802 3.91C73.5402 3.75 73.2402 3.67 72.7802 3.67H59.9102C59.4702 3.67 59.1702 3.75 59.0102 3.91C58.8702 4.05 58.8002 4.34 58.8002 4.78V9.94C58.8002 10.38 58.8702 10.67 59.0102 10.81C59.1702 10.95 59.4702 11.02 59.9102 11.02ZM83.246 22C82.166 22 81.246 21.62 80.486 20.86C79.726 20.1 79.346 19.18 79.346 18.1V4.3C79.346 3.22 79.726 2.3 80.486 1.54C81.246 0.779999 82.166 0.399999 83.246 0.399999H100.886V3.64H83.696C83.256 3.64 82.956 3.72 82.796 3.88C82.656 4.02 82.586 4.31 82.586 4.75V17.65C82.586 18.09 82.656 18.39 82.796 18.55C82.956 18.69 83.256 18.76 83.696 18.76H100.886V22H83.246ZM103.074 22V0.399999H122.874V3.64H106.344V9.55H119.634V12.82H106.344V18.76H122.874V22H103.074Z" fill="white"/>
</g>
<defs>
<filter id="filter0_d_901_22" x="0.679993" y="0.399994" width="126.194" height="29.6" filterUnits="userSpaceOnUse" color-interpolation-filters="sRGB">
<feFlood flood-opacity="0" result="BackgroundImageFix"/>
<feColorMatrix in="SourceAlpha" type="matrix" values="0 0 0 0 0 0 0 0 0 0 0 0 0 0 0 0 0 0 127 0" result="hardAlpha"/>
<feOffset dy="4"/>
<feGaussianBlur stdDeviation="2"/>
<feColorMatrix type="matrix" values="0 0 0 0 0 0 0 0 0 0 0 0 0 0 0 0 0 0 0.25 0"/>
<feBlend mode="normal" in2="BackgroundImageFix" result="effect1_dropShadow_901_22"/>
<feBlend mode="normal" in="SourceGraphic" in2="effect1_dropShadow_901_22" result="shape"/>
</filter>
</defs>
</svg>
